<svg width="380" height="451" viewBox="0 0 380 451" fill="none" xmlns="http://www.w3.org/2000/svg">
<path d="M8 0H372C376.4 0 380 3.6 380 8V408C380 412.4 376.4 416 372 416H8C3.6 416 0 412.4 0 408V8C0 3.6 3.6 0 8 0Z" fill="#ECF2FF"/>
<path d="M23.7002 406.5C24.0002 418.6 29.0002 429.8 37.8002 438.1C46.2002 446.2 57.3002 450.5 68.9002 450.5C69.3002 450.5 69.7002 450.5 70.1002 450.5C95.0002 449.9 114.8 429 114.1 404.1C113.8 392 108.8 380.8 100 372.5C96.3002 369 92.2002 366.2 87.7002 364.2L93.5002 350.6L92.0002 348.5L85.7002 363.3C80.1002 361.1 74.0002 360 67.8002 360.1C42.7002 360.8 23.0002 381.6 23.7002 406.5ZM41.7002 406.1C41.3002 391.1 53.2002 378.6 68.1002 378.2C68.3002 378.2 68.6002 378.2 68.8002 378.2C72.2002 378.2 75.4002 378.8 78.4002 379.9L67.7002 404.9L69.8002 405.8L80.5002 380.8C83.0002 382 85.4002 383.6 87.5002 385.6C92.7002 390.6 95.8002 397.3 95.9002 404.6C96.3002 419.6 84.4002 432.1 69.5002 432.5C62.3002 432.7 55.4002 430.1 50.1002 425.1C44.9002 420.1 41.9002 413.4 41.7002 406.1Z" fill="black"/>
<path d="M220 413.5L245.8 412.8V440.4C245.8 446 250.4 450.6 256 450.6H265V448.3H256C251.6 448.3 248.1 444.8 248.1 440.4V412.7L269.9 412.1C272.1 419.5 276.3 426.2 282 431.7C290.4 439.8 301.5 444.1 313.1 444.1C313.5 444.1 313.9 444.1 314.3 444.1C326.4 443.8 337.6 438.8 345.9 430C354.2 421.3 358.6 409.8 358.3 397.7C358 385.6 352.9 374.4 344.2 366.1C335.5 357.8 324 353.4 311.9 353.7C299.8 354 288.6 359 280.3 367.8C274.8 373.6 271 380.5 269.2 388L243.5 388.7L280.1 350L216.9 337.7L174.3 382.5C169.4 387.7 162.5 390.8 155.3 390.9L140.8 391.3L243.3 388.6L220 413.5ZM289.1 411.7L313.5 411.1C320.1 410.9 325.3 405.4 325.1 398.8V398.6C324.9 392.1 319.6 386.9 313.1 386.9C313 386.9 312.9 386.9 312.8 386.9L288.4 387.5C289.6 384.9 291.3 382.4 293.3 380.2C298.3 375 305 371.9 312.3 371.8C312.5 371.8 312.8 371.8 313 371.8C320 371.8 326.6 374.4 331.7 379.3C336.9 384.3 340 391 340.1 398.3C340.3 405.5 337.6 412.4 332.7 417.7C327.7 422.9 321 426 313.7 426.1C306.5 426.3 299.6 423.7 294.3 418.7C292.2 416.6 290.4 414.3 289.1 411.7Z" fill="black"/>
<path d="M146 240.5L139.8 240.7L146 240.5Z" fill="white"/>
<path d="M249.4 314L326.9 291.6C325.3 285.4 319.4 280.3 311.8 281.4L248.9 290.4L227.5 293.5L263.7 288.3L227 327.1C233.3 320.9 241 316.4 249.4 314Z" fill="black"/>
<path d="M280.1 350L301 328L325.9 327.4C331.4 327.2 336.7 329.8 340 334.3L358.2 359L360 357.6L341.8 332.9C338.1 327.9 332.1 325 325.9 325.1L303.3 325.7L317.2 311L323.6 304.2C323.8 303.9 324.1 303.7 324.3 303.4L280.1 350Z" fill="black"/>
<path d="M216.9 337.8L280 350.1L324.3 303.5C325.2 302.5 325.8 301.4 326.3 300.3C327.5 297.5 327.7 294.5 327 291.7L249.4 314C240.9 316.5 233.2 321 226.9 327.2L216.9 337.8Z" fill="white"/>
<path d="M227.6 293.6C220.1 294.7 212.4 293.9 205.4 291.2L142.3 267.7L132.6 277.8L116.1 295.2C113.4 298 111.8 301.5 111.3 305.1L182.3 303.3L182.4 305.6L111.1 307.4C111.1 309.7 111.4 312 112.3 314.1L182.5 312.3L182.6 314.6L113.3 316.4C113.7 317.1 114.1 317.8 114.6 318.5L136.4 347.9C138.6 350.9 139.8 354.5 139.9 358.2L140.8 391.5L155.3 391.1C162.5 390.9 169.3 387.9 174.3 382.7L216.9 337.8L227 327.2L263.8 288.4L227.6 293.6Z" fill="#156FFB"/>
<path d="M91.9001 348.5L93.4001 350.6L141.5 415.6L219.9 413.6L243.4 388.8L140.9 391.5L140 358.3C139.9 354.6 138.7 351 136.5 348L114.7 318.6C114.2 317.9 113.8 317.2 113.4 316.5L182.7 314.7L182.6 312.4L112.4 314.2C111.6 312 111.2 309.8 111.2 307.5L182.5 305.7L182.4 303.4L111.3 305.3C111.8 301.7 113.4 298.2 116.1 295.4L132.6 278L142.3 267.9L140 268L142.3 267.9L146.8 267.8C146.7 267.8 146.5 267.8 146.4 267.8C144.2 267.8 142 267.3 140 266.1C136.8 264.4 134.5 261.5 133.5 258C132.5 254.7 132.8 251.3 134.3 248.2L137.5 240.8L125.1 241.1C117.6 241.3 111.7 247.5 111.9 255C112.1 261.5 116.8 266.8 122.9 268C122.6 268.1 122.3 268.2 122 268.4C107.9 274.8 95.3001 283.8 84.9001 294.9C81.2001 298.8 77.8001 303 74.6001 307.3L81.4001 307.1L70.1001 326.1C68.7001 328.6 66.1001 330.1 63.2001 330.2H63.1001C63.7001 331.9 65.4001 333.1 67.4001 333.1L80.4001 332.8L91.9001 348.5Z" fill="white"/>
<path d="M146.3 267.6C146.4 267.6 146.6 267.6 146.7 267.6C151.4 267.4 155.9 264.9 158.3 260.5C161.8 253.9 159.4 245.7 152.8 242.1C150.7 240.9 148.3 240.4 146 240.5L139.8 240.7L146.5 225.1L161.2 224.7V224.6C164.6 224.1 167.6 221.9 169 218.5C171.2 213.3 168.8 207.3 163.6 205.2C158.4 203 152.4 205.4 150.3 210.6L146.3 219.9L144 225L137.3 240.6L134.1 248C132.6 251.1 132.3 254.5 133.3 257.8C134.3 261.3 136.6 264.1 139.8 265.9C141.9 267.1 144.1 267.6 146.3 267.6Z" fill="black"/>
<path d="M74.4 307.2C70 313.2 66.2 319.8 63.1 326.6C62.6 327.8 62.6 329.1 63 330.1H63.1C65.9 330 68.5 328.5 70 326L81.3 307L74.4 307.2Z" fill="#D1D7F3"/>
<path d="M139.7 212.5C139.8 212.5 139.8 212.5 139.7 212.5C139.8 212.4 139.8 212.4 139.7 212.5C139.7 212.5 139.7 212.4 139.7 212.5H139.6H139.7L139.6 212.6C139.6 212.6 139.6 212.6 139.6 212.7C139.6 212.7 139.6 212.8 139.6 212.7C139.7 212.7 139.7 212.6 139.7 212.5C139.6 212.6 139.6 212.5 139.6 212.5H139.7Z" fill="#FC4E52"/>
<path d="M142.3 144.5H223.9C228.1 144.5 231.5 141.1 231.5 136.9V96.8C231.5 92.6 228.1 89.2 223.9 89.2H142.3C138.1 89.2 134.7 92.6 134.7 96.8V136.9C134.7 141.1 138.1 144.5 142.3 144.5ZM245.3 108.7V124.8C245.3 128 242.7 130.6 239.5 130.6H238C237 130.6 236.1 129.8 236.1 128.7V104.8C236.1 103.8 236.9 102.9 238 102.9H239.6C242.7 103 245.3 105.6 245.3 108.7Z" fill="#37DA8A"/>
<path d="M179.9 139.8L200.3 112.6H184.5V94.5L164.1 121.7H179.9V139.8Z" fill="white"/>
</svg>
