<svg xmlns="http://www.w3.org/2000/svg" version="1.1" xmlns:xlink="http://www.w3.org/1999/xlink" xmlns:svgjs="http://svgjs.com/svgjs" width="1440" height="560" preserveAspectRatio="none" viewBox="0 0 1440 560"><g mask="url(&quot;#SvgjsMask1003&quot;)" fill="none"><path d="M-245.39 57.67C-83.33 62.41 25.37 291.54 354.51 304.07 683.66 316.6 787.16 593.98 954.42 602.04" stroke="rgba(3, 211, 185, 1)" stroke-width="2"></path><path d="M-64.43 409.19C38.24 405.79 114.35 243.61 313.04 246.79 511.73 249.97 555.95 621.01 690.51 657.98" stroke="rgba(3, 211, 185, 1)" stroke-width="2"></path><path d="M-43.93 423.01C83.45 422.32 197.59 309.36 453.12 311.01 708.65 312.66 799.17 643.82 950.17 660.76" stroke="rgba(3, 211, 185, 1)" stroke-width="2"></path><path d="M-204.77 333.9C-31.1 330.86 118.56 108.9 452.91 109.9 787.26 110.9 910.39 553.01 1110.59 575.81" stroke="rgba(3, 211, 185, 1)" stroke-width="2"></path><path d="M-118.15 351.88C-19.34 352.16 76.34 421.88 270.83 421.88 465.32 421.88 461.38 351.09 659.81 351.88 858.24 352.67 936.45 571.1 1048.79 579.24" stroke="rgba(3, 211, 185, 1)" stroke-width="2"></path></g><defs><mask id="SvgjsMask1003"><rect width="1440" height="560" fill="#ffffff"></rect></mask></defs></svg>