<svg width="380" height="452" viewBox="0 0 380 452" fill="none" xmlns="http://www.w3.org/2000/svg">
<path d="M8 0H372C376.4 0 380 3.6 380 8V408C380 412.4 376.4 416 372 416H8C3.6 416 0 412.4 0 408V8C0 3.6 3.6 0 8 0Z" fill="#F7E9D9"/>
<path d="M249 125C249 106.8 263.8 92 282 92H300C318.2 92 333 106.8 333 125H249Z" fill="#FFADAE"/>
<path d="M296 107C296 83.8 314.8 65 338 65C361.2 65 380 83.8 380 107V125H296V107Z" fill="#FFADAE"/>
<path d="M110.386 261.973L110.721 247.652L84.8277 247.085C84.8826 242.468 86.1355 238.008 88.3579 233.984C90.5802 229.96 93.7056 226.497 97.5346 223.97C101.364 221.442 105.771 219.783 110.405 219.206C115.038 218.629 119.61 219.22 123.995 220.914C128.351 222.512 132.205 225.205 135.314 228.542C138.453 231.976 140.627 236.017 141.778 240.475C142.93 244.933 142.999 249.617 141.938 254.018C140.905 258.515 138.808 262.606 135.807 266.135L122.534 270.604C121.099 271.042 119.672 271.163 118.254 270.969C116.835 270.774 115.396 270.168 114.214 269.379C113.003 268.494 112.05 267.425 111.42 266.049C110.629 264.827 110.316 263.458 110.386 261.973Z" fill="#1470FA"/>
<path d="M84.8584 246.901L84.8091 249.201L110.704 249.756L110.753 247.456L84.8584 246.901Z" fill="black"/>
<path d="M241.6 334.6V266.1C247.7 267.5 253.8 269.4 259.6 271.8C285.6 282.8 306.8 302.8 319.4 328.1C319.7 328.8 319.9 329.5 319.9 330.3C319.9 331.1 319.6 331.8 319.2 332.5C318.8 333.2 318.2 333.7 317.6 334.1C316.9 334.5 316.2 334.7 315.4 334.7L241.6 334.6Z" fill="white"/>
<path d="M92.2 387.4C87.2 382.3 80.3 379.5 73.2 379.5C67.9 379.5 62.7 381.1 58.2 384C53.8 387 50.3 391.2 48.3 396.1C46.3 401 45.7 406.4 46.8 411.7C47.8 416.9 50.4 421.7 54.2 425.5C58 429.3 62.8 431.8 68 432.9C73.2 433.9 78.6 433.4 83.6 431.4C88.5 429.4 92.7 425.9 95.7 421.5C98.7 417.1 100.2 411.9 100.2 406.5C100.1 399.3 97.3 392.4 92.2 387.4ZM104.9 438.1C96.5 446.5 85.1 451.3 73.2 451.3C64.3 451.3 55.6 448.7 48.3 443.7C40.9 438.8 35.2 431.8 31.8 423.6C28.4 415.4 27.5 406.4 29.2 397.7C30.9 389 35.2 381 41.5 374.7C47.8 368.4 55.8 364.1 64.5 362.4C73.2 360.7 82.2 361.6 90.4 365C98.6 368.4 105.6 374.2 110.5 381.5C115.4 388.9 118.1 397.6 118.1 406.4C118.1 418.3 113.3 429.7 104.9 438.1Z" fill="black"/>
<path d="M334.6 387.4C329.6 382.3 322.7 379.5 315.6 379.5C310.3 379.5 305.1 381.1 300.6 384C296.2 387 292.7 391.2 290.7 396.1C288.7 401 288.1 406.4 289.2 411.7C290.2 416.9 292.8 421.7 296.6 425.5C300.4 429.3 305.2 431.8 310.4 432.9C315.6 433.9 321 433.4 326 431.4C330.9 429.4 335.1 425.9 338.1 421.5C341.1 417.1 342.6 411.9 342.6 406.5C342.5 399.3 339.7 392.4 334.6 387.4ZM347.3 438.1C338.9 446.5 327.5 451.3 315.6 451.3C306.7 451.3 298 448.7 290.7 443.7C283.3 438.8 277.6 431.8 274.2 423.6C270.8 415.4 269.9 406.4 271.6 397.7C273.3 389 277.6 381 283.9 374.7C290.2 368.4 298.2 364.1 306.9 362.4C315.6 360.7 324.6 361.6 332.8 365C341 368.4 348 374.2 352.9 381.5C357.8 388.9 360.5 397.6 360.5 406.4C360.5 418.3 355.7 429.7 347.3 438.1Z" fill="black"/>
<path d="M64.7002 397.9C62.5002 400.1 61.2002 403.2 61.2002 406.3V406.5C61.2002 409.7 62.5002 412.7 64.7002 414.9C66.9002 417.1 70.0002 418.4 73.1002 418.4H171.4C171.7 418.4 171.9 418.3 172.2 418.2C172.5 418.1 172.7 417.9 172.9 417.7C173.1 417.5 173.2 417.3 173.4 417C173.5 416.7 173.6 416.5 173.6 416.2V396.4C173.6 395.8 173.4 395.3 173 394.9C172.6 394.5 172.1 394.3 171.5 394.3H73.2002C70.0002 394.4 66.9002 395.7 64.7002 397.9Z" fill="black"/>
<path d="M172.8 395C172.4 394.6 171.9 394.4 171.3 394.4H73.0001C69.8001 394.4 66.8001 395.7 64.6001 397.9C62.4001 400.1 61.1001 403.2 61.1001 406.3V406.5C61.1001 409.7 62.4001 412.7 64.6001 414.9C66.8001 417.1 69.9001 418.4 73.0001 418.4H171.3C171.6 418.4 171.8 418.3 172.1 418.2C172.4 418.1 172.6 417.9 172.8 417.7C173 417.5 173.1 417.3 173.3 417C173.4 416.7 173.5 416.5 173.5 416.2V396.4C173.4 396 173.2 395.4 172.8 395ZM170.5 397.4V415.4H73.2001C70.8001 415.4 68.6001 414.5 66.9001 412.8C65.2001 411.1 64.3001 408.9 64.3001 406.5V406.3C64.3001 403.9 65.2001 401.7 66.9001 400C68.6001 398.3 70.8001 397.4 73.2001 397.4H170.5Z" fill="black"/>
<path d="M57.3 309C56.5 309.8 56 311 56 312.2C56 313.4 56.5 314.5 57.3 315.4C58.1 316.2 59.3 316.7 60.5 316.7H71.7V307.7H60.5C59.3 307.6 58.1 308.1 57.3 309Z" fill="#FF4D4D"/>
<path d="M243.8 397.4H145L104.6 357L163 339L183.4 359.5C185.3 361.4 187.5 362.8 190 363.7C192.5 364.6 195.1 364.9 197.7 364.7C200.3 364.5 202.8 363.7 205.1 362.4C207.4 361.1 209.3 359.3 210.8 357.1L239.3 316.5V271.7L251.1 283.5L255.8 286.4L281.2 289.7V361.5L243.8 397.4Z" fill="black"/>
<path d="M290.543 348.982L288.543 349.899L314.664 406.9L316.664 405.983L290.543 348.982Z" fill="black"/>
<path d="M234.8 271.7H255.7C259.3 271.7 262.7 270.3 265.2 267.8C267.7 265.3 269.1 261.8 269.1 258.3C269.1 256.5 268.8 254.8 268.1 253.1C267.4 251.5 266.4 250 265.2 248.7C263.9 247.4 262.5 246.5 260.8 245.8C259.2 245.1 257.4 244.8 255.6 244.8H234.7V271.7H234.8Z" fill="white"/>
<path d="M44.8 342.9C46.4 340.7 48.4 338.9 50.8 337.6C53.2 336.4 55.9 335.7 58.6 335.7H91.1V333.5H58.6C55.5 333.5 52.5 334.2 49.8 335.7C47.1 337.1 44.7 339.2 43 341.7L25.5 366.6L27.3 367.9L44.8 342.9Z" fill="black"/>
<path d="M206.3 381.2C210.6 388.5 218.2 393.3 226.6 393.8C227.1 393.8 227.6 393.8 228.1 393.8H242.5L300.6 314.9L238 271.1" fill="#1470FA"/>
<path d="M238 271.1L197.7 364.7C197.7 364.7 203 377.3 207.5 383" fill="#1470FA"/>
<path d="M271.6 309.1L217.9 317.8L219.1 315.1L271.1 306.3L271.6 309.1Z" fill="white"/>
<path d="M271.6 318.2L214 326.9L215 324.3L271.1 315.3L271.6 318.2Z" fill="white"/>
<path d="M56.6 309.7C55.5 310.8 55 312.2 55 313.7C55 315.2 55.6 316.6 56.6 317.7C57.7 318.8 59.1 319.3 60.6 319.3H69.6V308H60.6C59 308 57.6 308.6 56.6 309.7Z" fill="#DE2B4A"/>
<path d="M167 343.2L104.6 357L59.5 311.9C58.1 310.3 57.1 308.5 56.6 306.4C56.1 304.4 56.1 302.2 56.5 300.2L134 320.4C143 322.7 151.2 327.4 157.8 334L167 343.2Z" fill="white"/>
<path d="M249.1 281.5L265.9 298.3C268.9 301.3 270.7 305.2 271.1 309.4C271.5 313.6 270.3 317.8 267.9 321.3L247 351.1C244.9 354.1 243.8 357.7 243.8 361.4V394.4H142L166.2 419.7L243.7 418.3L306.7 328.3L264.6 285.1" fill="white"/>
<path d="M92.2 387.4C87.2 382.3 80.3 379.5 73.2 379.5C67.9 379.5 62.7 381.1 58.2 384C53.8 387 50.3 391.2 48.3 396.1C46.3 401 45.7 406.4 46.8 411.7C47.8 416.9 50.4 421.7 54.2 425.5C58 429.3 62.8 431.8 68 432.9C73.2 433.9 78.6 433.4 83.6 431.4C88.5 429.4 92.7 425.9 95.7 421.5C98.7 417.1 100.2 411.9 100.2 406.5C100.1 399.3 97.3 392.4 92.2 387.4ZM104.9 438.1C96.5 446.5 85.1 451.3 73.2 451.3C64.3 451.3 55.6 448.7 48.3 443.7C40.9 438.8 35.2 431.8 31.8 423.6C28.4 415.4 27.5 406.4 29.2 397.7C30.9 389 35.2 381 41.5 374.7C47.8 368.4 55.8 364.1 64.5 362.4C73.2 360.7 82.2 361.6 90.4 365C98.6 368.4 105.6 374.2 110.5 381.5C115.4 388.9 118.1 397.6 118.1 406.4C118.1 418.3 113.3 429.7 104.9 438.1Z" fill="black"/>
<path d="M302.1 334.6H311.3C317.3 334.6 320.3 327.3 316.1 323.1L275.3 282.3C268.6 275.6 259.4 271.8 249.9 271.8H239.3L302.1 334.6Z" fill="white"/>
<path d="M222 227.2H233.3L232.2 224.9H222V227.2ZM236.7 229.4H219.7V222.6H233.6L236.7 229.4Z" fill="black"/>
<path d="M247.8 261.7C246.7 265.1 244.6 268.1 241.5 269.9C239.5 271.1 237.1 271.7 234.8 271.7C233.6 271.7 232.4 271.5 231.3 271.2C228.1 270.4 225.4 268.4 223.6 265.7C221.8 263 221 259.7 221.5 256.5C221.9 253.3 223.5 250.3 226 248.1C228.5 245.9 231.6 244.8 234.9 244.8H241.4L233.8 228.3H225.7L225.3 228.5C224 229.1 222.6 229.4 221.1 229.4C219.3 229.4 217.5 228.9 215.9 228C214.3 227.1 213.1 225.7 212.2 224.2C211.3 222.6 210.9 220.8 211 219C211.1 217.2 211.6 215.4 212.6 213.9C213.6 212.4 215 211.1 216.6 210.3C218.2 209.5 220 209.1 221.8 209.3C223.6 209.4 225.4 210 226.8 211.1C228.3 212.1 229.5 213.6 230.2 215.2L231.6 218.3L247.9 253.8C248.7 256.4 248.7 259.1 247.8 261.7Z" fill="black"/>
<path d="M134.2 448.7C136.1 446.8 137.2 444.2 137.2 441.6V407.9H135V441.6C135 443.7 134.2 445.7 132.7 447.2C131.2 448.7 129.2 449.5 127.1 449.5H118.1V451.7H127.1C129.7 451.7 132.3 450.6 134.2 448.7Z" fill="black"/>
<path d="M265.8 341.9C265.8 336.9 269.8 332.9 274.8 332.9C279.8 332.9 283.8 336.9 283.8 341.9C283.8 346.9 279.8 350.9 274.8 350.9C269.8 350.9 265.8 346.9 265.8 341.9Z" fill="white"/>
<path d="M319.8 329.8C319.8 330.4 319.8 331 319.6 331.6C318.1 331.5 316.7 331.1 315.4 330.3C314.1 329.5 313 328.5 312.2 327.2L300.9 309.1H307.6C312.1 315 316.1 321.4 319.4 328C319.6 328.6 319.8 329.2 319.8 329.8Z" fill="#D1D6F2"/>
<path d="M172.1 331C176 322.6 177.6 313.3 176.7 304L169 224.3C175.3 223.5 182.1 227.1 183.9 234.5L206.2 327.9C207.4 333 206.7 338.3 204.2 342.9C201.7 347.5 197.7 351 192.8 352.8C188.3 354.5 183.3 354.5 178.7 353C174.1 351.5 170.2 348.4 167.6 344.3L166.6 342.8L172.1 331Z" fill="black"/>
</svg>
