<svg xmlns="http://www.w3.org/2000/svg" version="1.1" xmlns:xlink="http://www.w3.org/1999/xlink" xmlns:svgjs="http://svgjs.com/svgjs" width="1440" height="250" preserveAspectRatio="none" viewBox="0 0 1440 250"><g mask="url(&quot;#SvgjsMask1012&quot;)" fill="none"><path d="M45 250L295 0L449.5 0L199.5 250z" fill="url(#SvgjsLinearGradient1013)"></path><path d="M272.6 250L522.6 0L785.1 0L535.1 250z" fill="url(#SvgjsLinearGradient1013)"></path><path d="M520.2 250L770.2 0L1011.7 0L761.7 250z" fill="url(#SvgjsLinearGradient1013)"></path><path d="M731.8000000000001 250L981.8000000000001 0L1064.3000000000002 0L814.3000000000001 250z" fill="url(#SvgjsLinearGradient1013)"></path><path d="M1423 250L1173 0L951 0L1201 250z" fill="url(#SvgjsLinearGradient1014)"></path><path d="M1193.4 250L943.4000000000001 0L842.9000000000001 0L1092.9 250z" fill="url(#SvgjsLinearGradient1014)"></path><path d="M939.8 250L689.8 0L466.29999999999995 0L716.3 250z" fill="url(#SvgjsLinearGradient1014)"></path><path d="M716.1999999999999 250L466.19999999999993 0L287.69999999999993 0L537.6999999999999 250z" fill="url(#SvgjsLinearGradient1014)"></path><path d="M1244.2934858215601 250L1440 54.293485821560125L1440 250z" fill="url(#SvgjsLinearGradient1013)"></path><path d="M0 250L195.70651417843987 250L 0 54.293485821560125z" fill="url(#SvgjsLinearGradient1014)"></path></g><defs><mask id="SvgjsMask1012"><rect width="1440" height="250" fill="#ffffff"></rect></mask><linearGradient x1="0%" y1="100%" x2="100%" y2="0%" id="SvgjsLinearGradient1013"><stop stop-color="rgba(3, 211, 185, 1)" offset="0"></stop><stop stop-opacity="0" stop-color="rgba(3, 211, 185, 1)" offset="0.66"></stop></linearGradient><linearGradient x1="100%" y1="100%" x2="0%" y2="0%" id="SvgjsLinearGradient1014"><stop stop-color="rgba(3, 211, 185, 1)" offset="0"></stop><stop stop-opacity="0" stop-color="rgba(3, 211, 185, 1)" offset="0.66"></stop></linearGradient></defs></svg>