<svg xmlns="http://www.w3.org/2000/svg" version="1.1" xmlns:xlink="http://www.w3.org/1999/xlink" xmlns:svgjs="http://svgjs.com/svgjs" width="600" height="300" preserveAspectRatio="none" viewBox="0 0 600 300"><g mask="url(&quot;#SvgjsMask1883&quot;)" fill="none"><path d="M522.28 78.87 L510.06 58.58L499.8818467919931 85.01315320800686z" stroke="rgba(3, 211, 185, 1)" stroke-width="2.41"></path><rect width="118" height="118" clip-path="url(&quot;#SvgjsClipPath1884&quot;)" x="-49.23" y="130.63" fill="url(#SvgjsPattern1885)" transform="rotate(218.22, 9.77, 189.63)"></rect><rect width="60" height="60" clip-path="url(&quot;#SvgjsClipPath1886&quot;)" x="540.76" y="63.99" fill="url(#SvgjsPattern1887)" transform="rotate(65.8, 570.76, 93.99)"></rect><circle r="25" cx="293.22" cy="248.39" stroke="rgba(3, 211, 185, 1)" stroke-width="2.7"></circle><rect width="180" height="180" clip-path="url(&quot;#SvgjsClipPath1888&quot;)" x="-34.06" y="137.18" fill="url(#SvgjsPattern1889)" transform="rotate(250.13, 55.94, 227.18)"></rect><rect width="195.52" height="195.52" clip-path="url(&quot;#SvgjsClipPath1890&quot;)" x="37.67" y="189.55" fill="url(#SvgjsPattern1891)" transform="rotate(19.63, 135.43, 287.31)"></rect><circle r="25" cx="300.26" cy="148.47" fill="rgba(3, 211, 185, 1)"></circle><rect width="180" height="180" clip-path="url(&quot;#SvgjsClipPath1892&quot;)" x="243.97" y="36.7" fill="url(#SvgjsPattern1893)" transform="rotate(310.72, 333.97, 126.7)"></rect><rect width="78.4" height="78.4" clip-path="url(&quot;#SvgjsClipPath1894&quot;)" x="159.5" y="78.23" fill="url(#SvgjsPattern1895)" transform="rotate(204.44, 198.7, 117.43)"></rect></g><defs><mask id="SvgjsMask1883"><rect width="600" height="300" fill="#ffffff"></rect></mask><pattern x="0" y="0" width="11.8" height="11.8" patternUnits="userSpaceOnUse" id="SvgjsPattern1885"><path d="M5.9 1L5.9 10.8M1 5.9L10.8 5.9" stroke="rgba(3, 211, 185, 1)" fill="none" stroke-width="4.78"></path></pattern><clipPath id="SvgjsClipPath1884"><circle r="29.5" cx="9.77" cy="189.63"></circle></clipPath><pattern x="0" y="0" width="6" height="6" patternUnits="userSpaceOnUse" id="SvgjsPattern1887"><path d="M0 6L3 0L6 6" stroke="rgba(3, 211, 185, 1)" fill="none"></path></pattern><clipPath id="SvgjsClipPath1886"><circle r="15" cx="570.76" cy="93.99"></circle></clipPath><pattern x="0" y="0" width="6" height="6" patternUnits="userSpaceOnUse" id="SvgjsPattern1889"><path d="M0 6L3 0L6 6" stroke="rgba(3, 211, 185, 1)" fill="none"></path></pattern><clipPath id="SvgjsClipPath1888"><circle r="45" cx="55.94" cy="227.18"></circle></clipPath><pattern x="0" y="0" width="195.52" height="12.22" patternUnits="userSpaceOnUse" id="SvgjsPattern1891"><rect width="195.52" height="6.11" x="0" y="0" fill="rgba(3, 211, 185, 1)"></rect><rect width="195.52" height="6.11" x="0" y="6.11" fill="rgba(0, 0, 0, 0)"></rect></pattern><clipPath id="SvgjsClipPath1890"><circle r="48.88" cx="135.43" cy="287.31"></circle></clipPath><pattern x="0" y="0" width="6" height="6" patternUnits="userSpaceOnUse" id="SvgjsPattern1893"><path d="M3 1L3 5M1 3L5 3" stroke="rgba(3, 211, 185, 1)" fill="none" stroke-width="1"></path></pattern><clipPath id="SvgjsClipPath1892"><circle r="45" cx="333.97" cy="126.7"></circle></clipPath><pattern x="0" y="0" width="7.84" height="7.84" patternUnits="userSpaceOnUse" id="SvgjsPattern1895"><path d="M3.92 1L3.92 6.84M1 3.92L6.84 3.92" stroke="rgba(3, 211, 185, 1)" fill="none" stroke-width="2.91"></path></pattern><clipPath id="SvgjsClipPath1894"><circle r="19.6" cx="198.7" cy="117.43"></circle></clipPath></defs></svg>