<svg xmlns="http://www.w3.org/2000/svg" version="1.1" xmlns:xlink="http://www.w3.org/1999/xlink" xmlns:svgjs="http://svgjs.com/svgjs" width="600" height="300" preserveAspectRatio="none" viewBox="0 0 600 300"><g mask="url(&quot;#SvgjsMask1859&quot;)" fill="none"><path d="M93.99 78.14a5.6 5.6 0 1 0-1.25-11.13 5.6 5.6 0 1 0 1.25 11.13zM92.2 62.24a5.6 5.6 0 1 0-1.26-11.13 5.6 5.6 0 1 0 1.26 11.13zM90.41 46.34a5.6 5.6 0 1 0-1.26-11.13 5.6 5.6 0 1 0 1.26 11.13zM88.62 30.44a5.6 5.6 0 1 0-1.26-11.13 5.6 5.6 0 1 0 1.26 11.13zM113.47 108.14a5.6 5.6 0 1 0-1.25-11.13 5.6 5.6 0 1 0 1.25 11.13zM111.68 92.24a5.6 5.6 0 1 0-1.25-11.13 5.6 5.6 0 1 0 1.25 11.13zM109.89 76.34a5.6 5.6 0 1 0-1.25-11.13 5.6 5.6 0 1 0 1.25 11.13zM108.1 60.44a5.6 5.6 0 1 0-1.26-11.12 5.6 5.6 0 1 0 1.26 11.12zM132.96 138.15a5.6 5.6 0 1 0-1.26-11.13 5.6 5.6 0 1 0 1.26 11.13zM131.17 122.25a5.6 5.6 0 1 0-1.26-11.13 5.6 5.6 0 1 0 1.26 11.13zM129.37 106.35a5.6 5.6 0 1 0-1.25-11.13 5.6 5.6 0 1 0 1.25 11.13zM127.58 90.45a5.6 5.6 0 1 0-1.25-11.13 5.6 5.6 0 1 0 1.25 11.13z" fill="rgba(3, 211, 185, 1)"></path><rect width="115.08000000000001" height="115.08000000000001" clip-path="url(&quot;#SvgjsClipPath1860&quot;)" x="152.16" y="158.39" fill="url(#SvgjsPattern1861)" transform="rotate(331.24, 209.7, 215.93)"></rect><rect width="60" height="60" clip-path="url(&quot;#SvgjsClipPath1862&quot;)" x="195.42" y="196.76" fill="url(#SvgjsPattern1863)" transform="rotate(224.14, 225.42, 226.76)"></rect><rect width="142.56" height="142.56" clip-path="url(&quot;#SvgjsClipPath1864&quot;)" x="-46.47" y="64.42" fill="url(#SvgjsPattern1865)" transform="rotate(101.69, 24.81, 135.7)"></rect><rect width="60" height="60" clip-path="url(&quot;#SvgjsClipPath1866&quot;)" x="360.55" y="43.21" fill="url(#SvgjsPattern1867)" transform="rotate(237.65, 390.55, 73.21)"></rect><rect width="192" height="192" clip-path="url(&quot;#SvgjsClipPath1868&quot;)" x="362.95" y="-20.58" fill="url(#SvgjsPattern1869)" transform="rotate(349.74, 458.95, 75.42)"></rect><circle r="43.64044257999645" cx="151.61" cy="222.92" stroke="rgba(3, 211, 185, 1)" stroke-width="1.36" stroke-dasharray="2, 2"></circle><rect width="192" height="192" clip-path="url(&quot;#SvgjsClipPath1870&quot;)" x="119.92" y="73.96" fill="url(#SvgjsPattern1871)" transform="rotate(37.02, 215.92, 169.96)"></rect><rect width="188.76" height="188.76" clip-path="url(&quot;#SvgjsClipPath1872&quot;)" x="251.23" y="134.08" fill="url(#SvgjsPattern1873)" transform="rotate(51.5, 345.61, 228.46)"></rect></g><defs><mask id="SvgjsMask1859"><rect width="600" height="300" fill="#ffffff"></rect></mask><pattern x="0" y="0" width="8.22" height="8.22" patternUnits="userSpaceOnUse" id="SvgjsPattern1861"><path d="M0 8.22L4.11 0L8.22 8.22" stroke="rgba(3, 211, 185, 1)" fill="none"></path></pattern><clipPath id="SvgjsClipPath1860"><circle r="28.770000000000003" cx="209.7" cy="215.93"></circle></clipPath><pattern x="0" y="0" width="60" height="6" patternUnits="userSpaceOnUse" id="SvgjsPattern1863"><rect width="60" height="3" x="0" y="0" fill="rgba(3, 211, 185, 1)"></rect><rect width="60" height="3" x="0" y="3" fill="rgba(0, 0, 0, 0)"></rect></pattern><clipPath id="SvgjsClipPath1862"><circle r="15" cx="225.42" cy="226.76"></circle></clipPath><pattern x="0" y="0" width="6.48" height="6.48" patternUnits="userSpaceOnUse" id="SvgjsPattern1865"><path d="M3.24 1L3.24 5.48M1 3.24L5.48 3.24" stroke="rgba(3, 211, 185, 1)" fill="none" stroke-width="1.47"></path></pattern><clipPath id="SvgjsClipPath1864"><circle r="35.64" cx="24.81" cy="135.7"></circle></clipPath><pattern x="0" y="0" width="60" height="6" patternUnits="userSpaceOnUse" id="SvgjsPattern1867"><rect width="60" height="3" x="0" y="0" fill="rgba(3, 211, 185, 1)"></rect><rect width="60" height="3" x="0" y="3" fill="rgba(0, 0, 0, 0)"></rect></pattern><clipPath id="SvgjsClipPath1866"><circle r="15" cx="390.55" cy="73.21"></circle></clipPath><pattern x="0" y="0" width="192" height="6" patternUnits="userSpaceOnUse" id="SvgjsPattern1869"><rect width="192" height="3" x="0" y="0" fill="rgba(3, 211, 185, 1)"></rect><rect width="192" height="3" x="0" y="3" fill="rgba(0, 0, 0, 0)"></rect></pattern><clipPath id="SvgjsClipPath1868"><circle r="48" cx="458.95" cy="75.42"></circle></clipPath><pattern x="0" y="0" width="6" height="6" patternUnits="userSpaceOnUse" id="SvgjsPattern1871"><path d="M0 6L3 0L6 6" stroke="rgba(3, 211, 185, 1)" fill="none"></path></pattern><clipPath id="SvgjsClipPath1870"><circle r="48" cx="215.92" cy="169.96"></circle></clipPath><pattern x="0" y="0" width="188.76" height="8.58" patternUnits="userSpaceOnUse" id="SvgjsPattern1873"><rect width="188.76" height="4.29" x="0" y="0" fill="rgba(3, 211, 185, 1)"></rect><rect width="188.76" height="4.29" x="0" y="4.29" fill="rgba(0, 0, 0, 0)"></rect></pattern><clipPath id="SvgjsClipPath1872"><circle r="47.19" cx="345.61" cy="228.46"></circle></clipPath></defs></svg>