<svg xmlns="http://www.w3.org/2000/svg" version="1.1" xmlns:xlink="http://www.w3.org/1999/xlink" xmlns:svgjs="http://svgjs.com/svgjs" width="1440" height="560" preserveAspectRatio="none" viewBox="0 0 1440 560"><g mask="url(&quot;#SvgjsMask1017&quot;)" fill="none"><path d="M820.3034729483411 87.958689861623L881.115874593045-2.1994032183350214 730.1453798683831 27.146288216919096z" fill="rgba(3, 211, 185, 1)" class="triangle-float3"></path><path d="M1128.1367541429447 93.96600671899368L975.4550621038069 55.743594203826135 1011.0650689720392 188.64194909394593z" fill="rgba(3, 211, 185, 1)" class="triangle-float1"></path><path d="M1136.325,175.216C1154.418,175.889,1168.656,161.23,1177.213,145.273C1185.254,130.278,1187.183,111.924,1177.918,97.653C1169.292,84.366,1152.162,82.655,1136.325,82.292C1119.546,81.907,1099.903,81.26,1091.292,95.666C1082.562,110.271,1092.006,127.607,1100.388,142.414C1108.952,157.541,1118.954,174.57,1136.325,175.216" fill="rgba(3, 211, 185, 1)" class="triangle-float3"></path><path d="M1118.378,193.212C1156.463,193.108,1192.826,176.914,1213.381,144.852C1235.736,109.982,1243.701,65.471,1223.426,29.353C1202.791,-7.406,1160.426,-27.38,1118.378,-24.383C1080.639,-21.693,1055.028,9.741,1036.417,42.682C1018.204,74.919,1004.764,112.857,1022.47,145.375C1040.78,179.003,1080.088,193.317,1118.378,193.212" fill="rgba(3, 211, 185, 1)" class="triangle-float1"></path><path d="M259.53776129914417 413.5076415471751L290.9316197350701 539.4215303921103 385.45165014407934 382.1137831112492z" fill="rgba(3, 211, 185, 1)" class="triangle-float1"></path><path d="M44.082158566269264 298.2806879314462L140.49436721096652 360.8915083022552 106.69297893707827 201.86847928674896z" fill="rgba(3, 211, 185, 1)" class="triangle-float3"></path></g><defs><mask id="SvgjsMask1017"><rect width="1440" height="560" fill="#ffffff"></rect></mask></defs></svg>