<svg xmlns="http://www.w3.org/2000/svg" version="1.1" xmlns:xlink="http://www.w3.org/1999/xlink" xmlns:svgjs="http://svgjs.com/svgjs" width="1440" height="560" preserveAspectRatio="none" viewBox="0 0 1440 560"><g mask="url(&quot;#SvgjsMask1024&quot;)" fill="none"><path d="M116.15712399243844 146.52562482335497L87.41472456516772 75.38568986527723-4.92397815831356 154.06925648522218z" fill="rgba(3, 211, 185, 1)" class="triangle-float1"></path><path d="M165.3802047287358 494.6360036052401L208.61261596630115 362.0105283240428 88.91335178264623 385.2777082996191z" fill="rgba(3, 211, 185, 1)" class="triangle-float2"></path><path d="M475.38322048234954 442.22095500040695L467.2895596490841 349.7099883553726 332.56994009816526 408.1059629277879z" fill="rgba(3, 211, 185, 1)" class="triangle-float2"></path><path d="M1387.848,519.934C1435.802,519.945,1482.206,499.393,1507.156,458.44C1533.116,415.829,1535.488,361.931,1510.375,318.815C1485.416,275.965,1437.428,252.669,1387.848,253.603C1339.884,254.507,1297.201,281.827,1273.066,323.287C1248.771,365.021,1244.294,416.677,1268.638,458.383C1292.801,499.779,1339.916,519.923,1387.848,519.934" fill="rgba(3, 211, 185, 1)" class="triangle-float3"></path><path d="M813.303,616.882C838.845,617.084,860.375,600.406,873.691,578.608C887.699,555.677,895.912,527.075,882.326,503.892C868.849,480.894,839.956,475.958,813.303,475.562C785.704,475.152,754.397,477.861,740.63,501.785C726.884,525.673,739.834,554.36,754.549,577.664C768.023,599.003,788.067,616.682,813.303,616.882" fill="rgba(3, 211, 185, 1)" class="triangle-float3"></path><path d="M996.81,78.703C1012.204,78.639,1023.741,66.197,1031.185,52.722C1038.337,39.775,1041.509,24.147,1033.981,11.415C1026.561,-1.135,1011.36,-6.337,996.81,-5.42C983.784,-4.599,973.647,4.433,966.958,15.641C960.055,27.208,956.176,40.834,961.939,53.009C968.56,66.996,981.335,78.767,996.81,78.703" fill="rgba(3, 211, 185, 1)" class="triangle-float2"></path></g><defs><mask id="SvgjsMask1024"><rect width="1440" height="560" fill="#ffffff"></rect></mask></defs></svg>