<svg xmlns="http://www.w3.org/2000/svg" version="1.1" xmlns:xlink="http://www.w3.org/1999/xlink" xmlns:svgjs="http://svgjs.com/svgjs" width="1443" height="1074" preserveAspectRatio="none" viewBox="0 0 1443 1074"><g mask="url(&quot;#SvgjsMask1036&quot;)" fill="none"><rect width="1443" height="1074" x="0" y="0" fill="rgba(13, 23, 33, 0.8)"></rect><path d="M -366.8874083950321,441 C -270.69,518.6 -78.29,812.2 114.1125916049679,829 C 306.51,845.8 402.71,563.4 595.1125916049679,525 C 787.51,486.6 883.71,663.8 1076.112591604968,637 C 1268.51,610.2 1483.74,384.2 1557.112591604968,391 C 1630.49,397.8 1465.82,615 1443,671" stroke="rgba(3, 211, 185, 1)" stroke-width="2"></path><path d="M -136.8303542732565,222 C -40.63,364.2 151.77,914.4 344.1696457267435,933 C 536.57,951.6 632.77,322.6 825.1696457267435,315 C 1017.57,307.4 1113.77,934.8 1306.1696457267435,895 C 1498.57,855.2 1759.8,122.4 1787.1696457267435,116 C 1814.54,109.6 1511.83,713.6 1443,863" stroke="rgba(3, 211, 185, 1)" stroke-width="2"></path><path d="M -123.32422231028409,628 C -27.12,592.2 165.28,401 357.6757776897159,449 C 550.08,497 646.28,901 838.6757776897159,868 C 1031.08,835 1127.28,266.4 1319.675777689716,284 C 1512.08,301.6 1776.01,905.8 1800.675777689716,956 C 1825.34,1006.2 1514.54,619.2 1443,535" stroke="rgba(3, 211, 185, 1)" stroke-width="2"></path><path d="M -732.031500888729,862 C -635.83,763.6 -443.43,421.8 -251.03150088872906,370 C -58.63,318.2 37.57,647 229.96849911127094,603 C 422.37,559 518.57,162.8 710.968499111271,150 C 903.37,137.2 1045.56,528.8 1191.9684991112708,539 C 1338.37,549.2 1392.79,268.6 1443,201" stroke="rgba(3, 211, 185, 1)" stroke-width="2"></path></g><defs><mask id="SvgjsMask1036"><rect width="1443" height="1074" fill="#ffffff"></rect></mask></defs></svg>